<?xml version="1.0" encoding="UTF-8"?>
<svg width="459px" height="192px" viewBox="0 0 459 192" version="1.1" xmlns="http://www.w3.org/2000/svg" xmlns:xlink="http://www.w3.org/1999/xlink">
    <!-- Generator: Sketch 58 (84663) - https://sketch.com -->
    <title>Combined Shape</title>
    <desc>Created with Sketch.</desc>
    <g id="Page-1" stroke="none" stroke-width="1" fill="none" fill-rule="evenodd">
        <g id="Artboard" transform="translate(-194.000000, -373.000000)" fill="#0064C3" fill-rule="nonzero">
            <path d="M332.803521,543.660736 C335.313543,543.660736 337.202852,544.210932 338.471505,545.31134 C339.740157,546.411749 340.406304,547.880453 340.469964,549.717499 L336.432122,549.894836 C336.25933,548.867182 335.888744,548.128283 335.320351,547.678116 C334.751958,547.227949 333.899382,547.002869 332.762597,547.002869 C331.589434,547.002869 330.670925,547.243864 330.007042,547.725861 C329.579611,548.035066 329.365899,548.44885 329.365899,548.967224 C329.365899,549.440127 329.56597,549.844816 329.966118,550.181305 C330.447105,550.58499 331.577025,551.004893 333.35591,551.441025 L333.676568,551.518158 C335.640933,551.981966 337.093723,552.461683 338.034981,552.957321 C338.97624,553.45296 339.712866,554.130474 340.244881,554.989883 C340.776897,555.849293 341.042901,556.911035 341.042901,558.17514 C341.042901,559.32102 340.724605,560.39413 340.088005,561.394501 C339.451406,562.394872 338.551085,563.138318 337.387017,563.624863 C336.222948,564.111407 334.772432,564.354675 333.035424,564.354675 C330.507213,564.354675 328.565612,563.770376 327.210564,562.601761 C325.855516,561.433145 325.046137,559.730266 324.782402,557.493073 L328.711113,557.111115 C328.947565,558.429786 329.427281,559.398312 330.150277,560.016724 C330.873272,560.635135 331.848619,560.944336 333.076348,560.944336 C334.37683,560.944336 335.356725,560.669238 336.01606,560.119034 C336.675396,559.56883 337.005059,558.925419 337.005059,558.188782 C337.005059,557.715879 336.866373,557.313463 336.588997,556.981522 C336.311622,556.64958 335.827358,556.360841 335.136193,556.115295 L334.930506,556.047941 C334.462438,555.901296 333.654193,555.683036 332.505758,555.393157 L331.903191,555.242249 C329.738752,554.705686 328.220029,554.04636 327.346978,553.264252 C326.119249,552.163843 325.505394,550.822457 325.505394,549.240051 C325.505394,548.221491 325.794134,547.26888 326.371621,546.382187 C326.949108,545.495494 327.781222,544.820254 328.867989,544.356445 C329.954756,543.892637 331.266587,543.660736 332.803521,543.660736 Z M643.65196,543.660736 C646.161982,543.660736 648.051291,544.210932 649.319944,545.31134 C650.588597,546.411749 651.254743,547.880453 651.318403,549.717499 L647.280561,549.894836 C647.10777,548.867182 646.737183,548.128283 646.16879,547.678116 C645.600398,547.227949 644.747821,547.002869 643.611036,547.002869 C642.437873,547.002869 641.519364,547.243864 640.855482,547.725861 C640.42805,548.035066 640.214338,548.44885 640.214338,548.967224 C640.214338,549.440127 640.414409,549.844816 640.814558,550.181305 C641.295544,550.58499 642.425464,551.004893 644.204349,551.441025 L644.525007,551.518158 C646.489372,551.981966 647.942162,552.461683 648.883421,552.957321 C649.824679,553.45296 650.561305,554.130474 651.09332,554.989883 C651.625336,555.849293 651.89134,556.911035 651.89134,558.17514 C651.89134,559.32102 651.573045,560.39413 650.936445,561.394501 C650.299845,562.394872 649.399524,563.138318 648.235456,563.624863 C647.071388,564.111407 645.620871,564.354675 643.883863,564.354675 C641.355652,564.354675 639.414052,563.770376 638.059003,562.601761 C636.703955,561.433145 635.894576,559.730266 635.630842,557.493073 L639.559553,557.111115 C639.796004,558.429786 640.27572,559.398312 640.998716,560.016724 C641.721712,560.635135 642.697059,560.944336 643.924787,560.944336 C645.22527,560.944336 646.205164,560.669238 646.8645,560.119034 C647.523835,559.56883 647.853498,558.925419 647.853498,558.188782 C647.853498,557.715879 647.714812,557.313463 647.437437,556.981522 C647.160061,556.64958 646.675798,556.360841 645.984632,556.115295 L645.778946,556.047941 C645.310877,555.901296 644.502632,555.683036 643.354197,555.393157 L642.75163,555.242249 C640.587191,554.705686 639.068468,554.04636 638.195417,553.264252 C636.967689,552.163843 636.353834,550.822457 636.353834,549.240051 C636.353834,548.221491 636.642573,547.26888 637.22006,546.382187 C637.797547,545.495494 638.629661,544.820254 639.716428,544.356445 C640.803195,543.892637 642.115026,543.660736 643.65196,543.660736 Z M200.829971,544.00177 L200.829971,554.833008 C200.829971,556.551827 200.879989,557.66586 200.980026,558.17514 C201.152817,558.993626 201.564327,559.650678 202.214569,560.146317 C202.86481,560.641955 203.753763,560.889771 204.881454,560.889771 C206.027334,560.889771 206.891278,560.655596 207.473312,560.187241 C208.055346,559.718885 208.405471,559.14368 208.523696,558.461609 C208.641922,557.779538 208.701034,556.647316 208.701034,555.064911 L208.701034,544.00177 L212.738876,544.00177 L212.738876,554.505615 C212.738876,556.906506 212.629746,558.602565 212.411483,559.593842 C212.19322,560.585118 211.790804,561.42178 211.204223,562.103851 C210.617642,562.785923 209.833272,563.329298 208.851089,563.733994 C207.868906,564.138689 206.586631,564.341034 205.004226,564.341034 C203.094427,564.341034 201.646184,564.120501 200.659454,563.679428 C199.672724,563.238355 198.892901,562.665424 198.319961,561.960617 C197.747021,561.25581 197.369614,560.516911 197.187728,559.743896 C196.940477,558.669634 196.809127,557.115813 196.793674,555.082391 L196.792129,544.00177 L200.829971,544.00177 Z M552.577552,543.660736 C555.023915,543.660736 557.010986,544.383721 558.538826,545.829712 C559.448254,546.684575 560.130315,547.912284 560.585029,549.512878 L556.588111,550.467773 C556.35166,549.431025 555.858303,548.612552 555.108024,548.012329 C554.357746,547.412106 553.446057,547.112 552.372932,547.112 C550.890564,547.112 549.687863,547.644007 548.764793,548.708038 C547.841723,549.77207 547.380195,551.49541 547.380195,553.878113 C547.380195,556.406324 547.834903,558.206965 548.744331,559.28009 C549.653759,560.353216 550.835998,560.889771 552.291084,560.889771 C553.364209,560.889771 554.287265,560.54874 555.060279,559.866669 C555.833294,559.184597 556.388037,558.111488 556.724525,556.647308 L560.639595,557.888672 C560.039372,560.0713 559.041289,561.692332 557.645317,562.751816 C556.249344,563.8113 554.478259,564.341034 552.332008,564.341034 C549.676477,564.341034 547.493882,563.433893 545.784156,561.619583 C544.074431,559.805274 543.219581,557.324845 543.219581,554.178223 C543.219581,550.849715 544.078978,548.264703 545.797798,546.423111 C547.516617,544.581519 549.776513,543.660736 552.577552,543.660736 Z M247.922289,544.00177 L256.107104,557.356659 L256.107104,544.00177 L259.858477,544.00177 L259.858477,564 L255.806994,564 L247.744952,550.958862 L247.744952,564 L243.993578,564 L243.993578,544.00177 L247.922289,544.00177 Z M295.000966,544.00177 L295.000966,564 L290.963125,564 L290.963125,544.00177 L295.000966,544.00177 Z M386.225429,544.00177 L386.225429,547.384827 L375.435115,547.384827 L375.435115,551.818268 L385.475154,551.818268 L385.475154,555.187683 L375.435115,555.187683 L375.435115,560.630585 L386.607387,560.630585 L386.607387,564 L371.397274,564 L371.397274,544.00177 L386.225429,544.00177 Z M425.50125,544.00177 C427.638406,544.00177 429.191232,544.181379 430.159773,544.540604 C431.128315,544.899828 431.903591,545.538692 432.485625,546.457214 C433.067659,547.375737 433.358672,548.426111 433.358672,549.608368 C433.358672,551.108925 432.917606,552.348002 432.03546,553.325638 C431.153314,554.303273 429.834663,554.919402 428.079466,555.174042 C428.952518,555.683322 429.673229,556.242612 430.241621,556.851929 L430.479527,557.120876 C430.935028,557.660185 431.496896,558.453803 432.165143,559.501745 L434.981993,564 L430.152953,564 L426.715423,558.878848 C425.956793,557.765352 425.420206,557.041973 425.10565,556.708694 C424.72369,556.303999 424.319001,556.026627 423.89157,555.876572 C423.464138,555.726516 422.786624,555.651489 421.859007,555.651489 L421.040526,555.651489 L421.040526,564 L417.002684,564 L417.002684,544.00177 L425.50125,544.00177 Z M465.950227,544.00177 L471.011171,558.802643 L475.908418,544.00177 L480.191804,544.00177 L473.030092,564 L468.719423,564 L461.571352,544.00177 L465.950227,544.00177 Z M513.124394,544.00177 L513.124394,564 L509.086552,564 L509.086552,544.00177 L513.124394,544.00177 Z M605.89033,544.00177 L605.89033,547.384827 L595.100016,547.384827 L595.100016,551.818268 L605.140055,551.818268 L605.140055,555.187683 L595.100016,555.187683 L595.100016,560.630585 L606.272288,560.630585 L606.272288,564 L591.062174,564 L591.062174,544.00177 L605.89033,544.00177 Z M424.191679,547.384827 L421.040526,547.384827 L421.040526,552.459412 L424.027983,552.459412 C425.965066,552.459412 427.174587,552.377564 427.656584,552.213867 C428.138581,552.05017 428.515988,551.768252 428.788817,551.368103 C429.061645,550.967955 429.198058,550.467776 429.198058,549.867554 C429.198058,549.194577 429.018448,548.651201 428.659224,548.237411 C428.3,547.823622 427.793001,547.562165 427.138213,547.453033 L426.995474,547.437929 C426.570657,547.402527 425.636066,547.384827 424.191679,547.384827 Z M235,373 C247.150264,373 257,382.849736 257,395 L257,510 L216,510 C203.849736,510 194,500.150264 194,488 L194,373 L235,373 Z M456.464749,373 L456.464749,393 L398,392.607871 L398,510 L357,510 C344.849736,510 335,500.150264 335,488 L335,393.257762 L285.895616,393.257762 L285.895616,373 L456.464749,373 Z M524.464749,373 C536.615013,373 546.464749,382.849736 546.464749,395 L546.464749,467.742238 C546.464749,479.892502 556.314484,489.742238 568.464749,489.742238 L633.099835,489.742238 L632.268669,373 L652.569132,373 L652.569132,510 L505.464749,510 C493.314484,510 483.464749,500.150264 483.464749,488 L483.464749,373 L524.464749,373 Z" id="Combined-Shape"></path>
        </g>
    </g>
</svg>